<svg version="1.1" xmlns="http://www.w3.org/2000/svg" viewBox="-277.5040027618408 -1630.8478729248047 7272.453004969631 2690.303778076172"><desc>Created with Snap</desc><defs></defs><g><g transform="matrix(23.0913,0,0,23.0913,4494.0799,-1439.1041)"><g><path d="M78.4,66.5c-5.5,4.8-9.9,15.2-9.9,15.2s-6.9-11.4-12.9-15.3c-9.5-6.1-13.6-6.2-13.6-6.2V65c0,0,7.8,1.2,11.7,4.6   c8.2,7.1,14.8,18.5,14.8,18.5S74.4,75,80.1,70.5C88.1,64.3,95,65,95,65v-4.8C95,60.1,85.1,60.7,78.4,66.5z" fill="white" style=""></path><path d="M42,80c-6.4-3.6-17.8-4.3-17.8-4.3s8.7-10.1,10.5-17C37.5,47.9,36.2,44,36.2,44l-4.6,1.6c0,0,1.3,7.7-0.6,12.4   c-4.1,9.9-13,19.8-13,19.8s14.6,1.3,20.7,5.1c8.6,5.4,10.2,12,10.2,12l4.6-1.6C53.5,93.4,49.7,84.4,42,80z" fill="white" style=""></path><path d="M35.3,36.8c11.3-0.9,14.6-3.4,14.6-3.4l-3-3.8c0,0-6.9,3.7-12.1,3.4c-10.9-0.6-23.3-5.6-23.3-5.6s3.5,14,1.8,20.9   C10.9,58.2,5,61.8,5,61.8l3,3.8c0,0,7.5-6.5,9.1-15.1c1.3-7.1-1.7-18-1.7-18S28,37.4,35.3,36.8z" fill="white" style=""></path><path d="M37.4,17.8c7.3-1.1,16.7-7.4,16.7-7.4s-0.6,13.2,2.4,19.8c4.6,10.2,8,12.5,8,12.5l2.7-4c0,0-5.9-5.2-7.3-10.2   C56.9,18.2,57.7,5,57.7,5s-12.3,7.8-19.5,8.5c-10.2,1-15.6-3.3-15.6-3.3l-2.7,4.1C19.9,14.2,28.6,19.1,37.4,17.8z" fill="white" style=""></path><path d="M65,60.5c0,0,3.1-7.2,7.4-10.1c9-6.1,21.9-9.7,21.9-9.7s-11.5-8.9-14.5-15.4c-4.2-9.1-1.9-15.6-1.9-15.6l-4.8-1.2   c0,0-1.9,9.6,2.2,17.4c3.4,6.4,12.5,13.2,12.5,13.2S75,42.9,69.6,47.8c-8.3,7.6-9.4,11.5-9.4,11.5L65,60.5z" fill="white" style=""></path></g><desc>Created with Snap</desc><defs></defs></g><g><g transform="matrix(0.512,0,0,-0.512,0,0)"><path d="M955 1301L908 1209Q899 1194 889 1186Q879 1179 863 1179Q846 1179 823 1196Q801 1213 766 1233Q732 1254 683 1271Q635 1288 566 1288Q501 1288 451 1270Q401 1253 367 1223Q334 1193 317 1152Q300 1112 300 1065Q300 1005 329 965Q359 926 407 898Q456 870 517 849Q579 829 643 807Q708 785 769 757Q831 730 879 688Q928 646 957 585Q987 524 987 435Q987 341 955 258Q923 176 861 115Q800 54 710 19Q621 -16 507 -16Q368 -16 253 34Q139 85 58 171L114 263Q122 274 133 281Q145 289 159 289Q180 289 207 266Q234 244 274 217Q315 190 372 167Q430 145 513 145Q582 145 636 164Q690 183 727 217Q765 252 785 300Q805 348 805 407Q805 472 775 513Q746 555 698 583Q650 611 588 630Q527 650 462 670Q398 691 336 718Q275 745 227 788Q179 831 149 895Q120 960 120 1055Q120 1131 149 1202Q179 1273 235 1328Q291 1383 373 1416Q456 1449 563 1449Q683 1449 782 1411Q881 1373 955 1301ZM1607 1029Q1698 1029 1775 998Q1852 968 1908 910Q1964 853 1995 768Q2027 684 2027 576Q2027 534 2018 520Q2009 506 1984 506L1310 506Q1312 410 1336 339Q1360 268 1402 220Q1444 173 1502 149Q1560 126 1632 126Q1699 126 1747 141Q1796 157 1831 175Q1866 193 1889 208Q1913 224 1930 224Q1952 224 1964 207L2014 142Q1981 102 1935 72Q1889 43 1836 24Q1784 5 1728 -5Q1672 -14 1617 -14Q1512 -14 1423 21Q1335 57 1270 125Q1206 194 1170 295Q1134 396 1134 527Q1134 633 1166 725Q1199 817 1260 884Q1321 952 1409 990Q1497 1029 1607 1029ZM1611 898Q1482 898 1408 823Q1334 749 1316 617L1867 617Q1867 679 1850 730Q1833 782 1800 819Q1767 857 1719 877Q1672 898 1611 898ZM2432 0L2254 0L2254 1013L2356 1013Q2385 1013 2396 1002Q2407 991 2411 964L2423 806Q2475 912 2551 971Q2628 1031 2731 1031Q2773 1031 2807 1021Q2841 1012 2870 995L2847 862Q2840 837 2816 837Q2802 837 2773 846Q2744 856 2692 856Q2599 856 2536 802Q2474 748 2432 645L2432 0ZM3238 -343L3060 -343L3060 1013L3166 1013Q3204 1013 3214 976L3229 856Q3294 935 3377 983Q3461 1031 3570 1031Q3657 1031 3728 997Q3799 964 3849 898Q3899 833 3926 736Q3953 639 3953 513Q3953 401 3923 304Q3893 208 3837 137Q3781 67 3699 26Q3618 -14 3516 -14Q3422 -14 3355 17Q3289 48 3238 105L3238 -343ZM3511 887Q3424 887 3358 847Q3293 807 3238 734L3238 244Q3287 178 3345 151Q3404 124 3476 124Q3617 124 3693 225Q3769 326 3769 513Q3769 612 3751 683Q3734 754 3701 799Q3668 845 3620 866Q3572 887 3511 887ZM4184 1013L4362 1013L4362 0L4184 0L4184 1013ZM4402 1331Q4402 1305 4391 1282Q4381 1260 4363 1242Q4346 1225 4323 1215Q4300 1205 4274 1205Q4248 1205 4225 1215Q4203 1225 4185 1242Q4168 1260 4158 1282Q4148 1305 4148 1331Q4148 1357 4158 1380Q4168 1404 4185 1421Q4203 1439 4225 1449Q4248 1459 4274 1459Q4300 1459 4323 1449Q4346 1439 4363 1421Q4381 1404 4391 1380Q4402 1357 4402 1331ZM5077 1029Q5168 1029 5245 998Q5322 968 5378 910Q5434 853 5465 768Q5497 684 5497 576Q5497 534 5488 520Q5479 506 5454 506L4780 506Q4782 410 4806 339Q4830 268 4872 220Q4914 173 4972 149Q5030 126 5102 126Q5169 126 5217 141Q5266 157 5301 175Q5336 193 5359 208Q5383 224 5400 224Q5422 224 5434 207L5484 142Q5451 102 5405 72Q5359 43 5306 24Q5254 5 5198 -5Q5142 -14 5087 -14Q4982 -14 4893 21Q4805 57 4740 125Q4676 194 4640 295Q4604 396 4604 527Q4604 633 4636 725Q4669 817 4730 884Q4791 952 4879 990Q4967 1029 5077 1029ZM5081 898Q4952 898 4878 823Q4804 749 4786 617L5337 617Q5337 679 5320 730Q5303 782 5270 819Q5237 857 5189 877Q5142 898 5081 898ZM5902 0L5724 0L5724 1013L5830 1013Q5868 1013 5878 976L5892 866Q5958 939 6039 984Q6121 1029 6228 1029Q6311 1029 6374 1001Q6438 974 6480 923Q6523 873 6545 802Q6567 731 6567 645L6567 0L6389 0L6389 645Q6389 760 6336 823Q6284 887 6176 887Q6097 887 6028 849Q5960 811 5902 746L5902 0ZM7143 -16Q7023 -16 6958 51Q6894 118 6894 244L6894 864L6772 864Q6756 864 6745 873Q6734 883 6734 903L6734 974L6900 995L6941 1308Q6943 1323 6954 1332Q6965 1342 6982 1342L7072 1342L7072 993L7362 993L7362 864L7072 864L7072 256Q7072 192 7103 161Q7134 130 7183 130Q7211 130 7231 137Q7252 145 7267 154Q7282 163 7292 170Q7303 178 7311 178Q7325 178 7336 161L7388 76Q7342 33 7277 8Q7212 -16 7143 -16ZM7983 1029Q8074 1029 8151 998Q8228 968 8284 910Q8340 853 8371 768Q8403 684 8403 576Q8403 534 8394 520Q8385 506 8360 506L7686 506Q7688 410 7712 339Q7736 268 7778 220Q7820 173 7878 149Q7936 126 8008 126Q8075 126 8123 141Q8172 157 8207 175Q8242 193 8265 208Q8289 224 8306 224Q8328 224 8340 207L8390 142Q8357 102 8311 72Q8265 43 8212 24Q8160 5 8104 -5Q8048 -14 7993 -14Q7888 -14 7799 21Q7711 57 7646 125Q7582 194 7546 295Q7510 396 7510 527Q7510 633 7542 725Q7575 817 7636 884Q7697 952 7785 990Q7873 1029 7983 1029ZM7987 898Q7858 898 7784 823Q7710 749 7692 617L8243 617Q8243 679 8226 730Q8209 782 8176 819Q8143 857 8095 877Q8048 898 7987 898Z" fill="white" style=""></path></g></g></g></svg>